<svg class="icon" viewBox="0 0 1024 1024" xmlns="http://www.w3.org/2000/svg" width="240" height="240"><defs><style/></defs><path d="M511.91 1007.285C229.496 1007.285 0 781.04 0 503.627 0 226.244 229.527 0 511.91 0c282.353 0 511.88 226.214 511.88 503.627 0 277.414-229.527 503.658-511.88 503.658zm0-974.246c-264.222 0-478.87 211.336-478.87 470.588s214.648 470.619 478.87 470.619c264.192 0 478.87-211.366 478.87-470.619S776.102 33.04 511.91 33.04zM379.784 311.176c18.16 0 33.039 12.047 33.039 26.774v347.89c0 14.727-14.879 26.774-33.04 26.774s-33.008-12.047-33.008-26.775V337.95c0-14.727 14.848-26.774 33.009-26.774zm247.687 0c18.191 0 33.04 12.047 33.04 26.774v347.89c0 14.727-14.849 26.774-33.04 26.774-18.16 0-33.009-12.047-33.009-26.775V337.95c0-14.727 14.848-26.774 33.01-26.774z"/></svg>