<svg class="icon" viewBox="0 0 1024 1024" xmlns="http://www.w3.org/2000/svg" width="240" height="240"><defs><style/></defs><path d="M512 1008.941c-274.462 0-496.941-222.479-496.941-496.941S237.538 15.059 512 15.059 1008.941 237.538 1008.941 512 786.462 1008.941 512 1008.941zm0-30.117c257.807 0 466.824-209.017 466.824-466.824S769.807 45.176 512 45.176 45.176 254.193 45.176 512 254.193 978.824 512 978.824zm-51.863-304.008a38.4 38.4 0 0 1-38.49-38.58V399.961a38.694 38.694 0 0 1 19.245-33.43 38.701 38.701 0 0 1 38.55 0l204.65 118.151a38.731 38.731 0 0 1 0 66.861l-204.71 118.062a37.496 37.496 0 0 1-19.275 5.18z"/></svg>