<svg class="icon" viewBox="0 0 1024 1024" xmlns="http://www.w3.org/2000/svg" width="300" height="300"><defs><style/></defs><path d="M1008.98 400.388l-70.468-57.856C807.277 234.79 671.574 123.378 538.073 13.861c-4.129-3.39-8.721-6.014-13.276-7.588-3.464-1.203-6.979-1.812-10.451-1.812-10.712 0-19.17 5.76-26.03 11.397-112.43 92.367-226.791 186.24-337.386 277.022l-80.633 66.19c-4.688 3.847-9.38 7.69-14.074 11.529l-.14.113c-12.42 10.165-25.263 20.675-37.813 31.168-10.571 8.832-20.749 21.337-5.491 39.778 4.067 4.924 9.659 7.635 15.743 7.635 10.48 0 19.118-7.594 27.473-14.941 2.01-1.77 3.909-3.44 5.645-4.82 1.694-1.346 3.357-2.724 5.019-4.102l24.112-19.786v74.164c-.001 134.176-.001 268.354.018 402.545.01 7.511.022 16.025.583 24.494 2.302 34.985 17.58 64.088 45.409 86.5 21.596 17.377 47.85 26.188 78.032 26.188 25.475-.016 50.963-.02 76.439-.02l117.106.011 240.38-.014c54.976 0 109.945.006 164.92.026h.122c32.18 0 59.842-9.868 82.216-29.332 27.998-24.351 42.185-56.208 42.164-94.684-.057-120.11-.046-244.064-.036-353.426l.006-136.494c9.234 7.603 19.57 16.105 29.652 24.207 1.429 1.148 2.969 2.461 4.613 3.864 8.728 7.45 17.754 15.152 28.393 15.153 6.576 0 12.45-3.063 16.546-8.626 15.117-20.56.992-32.146-8.354-39.812zm-116.896 425.94l.001 73.336c0 45.49-35.528 77.26-86.397 77.26-39.056 0-93.85.008-118.21.011l-.011-45.581c-.02-85.257-.041-173.418.02-256.906.038-41.724-11.835-78.399-35.294-109.004-29.063-37.905-67.45-60.433-114.091-66.957a173.892 173.892 0 0 0-23.984-1.673c-82.103 0-153.17 58.513-168.98 139.13-2.227 11.36-3.369 24.071-3.392 37.78-.185 78.815-.168 158.956-.15 236.458l.003 12.305c.004 18.09.007 36.182.008 54.272-24.501.103-81.946.218-123.241.218-44.083 0-81.326-37.101-81.326-81.015 0-210.994-.036-364.513-.123-529.885 0-.213.003-.38.008-.505.057-.05.126-.106.206-.172 102.616-84.112 206.896-169.718 307.742-252.505l69.624-57.154c20.777 17.048 41.425 33.999 62.059 50.937l51.098 41.951c86.078 70.677 175.088 143.76 262.733 215.517 1.727 1.412 1.847 1.673 1.846 3.99-.153 158.535-.151 304.09-.149 458.192zm-501.53-158.15c.062-51.186 37.983-110.357 101.334-120.779a112.681 112.681 0 0 1 18.255-1.489c59.087 0 117.051 48.16 126.573 105.163 1.08 6.483 1.543 12.25 1.55 19.288.093 86.69.087 165.524.081 248.986l-.003 56.68h-247.81c-.003-20.645-.008-41.06-.014-61.343l-.003-13.788c-.025-78.827-.047-153.283.037-232.718z" fill="#666"/></svg>